<svg width="163" height="58" viewBox="0 0 163 58" fill="none" xmlns="http://www.w3.org/2000/svg">
<path d="M85.8315 43.3623L65.3315 55.8623V37.3623L72.8315 21.3623L76.3315 20.3623L85.8315 25.8623V43.3623Z" fill="url(#paint0_linear_1_365)"/>
<path d="M73.3558 38.9141C73.0509 39.094 72.8638 39.4215 72.8638 39.7755V50.053C72.8638 50.827 73.7051 51.3076 74.3718 50.9144L77.7127 48.9441C78.0176 48.7642 78.2047 48.4367 78.2047 48.0827V37.8052C78.2047 37.0312 77.3633 36.5507 76.6967 36.9438L73.3558 38.9141Z" fill="#E64631"/>
<path d="M87.5973 26.1231C87.5973 24.7004 86.8417 23.3848 85.6128 22.668L65.6811 11.0409L57.0067 6.01624C55.0875 4.90454 52.6302 5.56665 51.5293 7.49209L42.0924 23.9973C41.7404 24.6129 41.5584 25.311 41.5651 26.0202L41.7338 44.012C41.7371 44.363 41.9242 44.6865 42.2267 44.8645L62.9647 57.0645C63.2773 57.2484 63.665 57.2486 63.9779 57.065L65.6811 56.0654V37.5368L73.4541 23.8148C74.5493 21.8813 77.0107 21.2111 78.935 22.3225L84.8874 25.7603C85.1967 25.939 85.3873 26.2691 85.3873 26.6263V42.8313C85.3873 43.6043 86.2268 44.085 86.8934 43.6937L87.1034 43.5705C87.4094 43.3909 87.5973 43.0628 87.5973 42.708V26.1231Z" fill="url(#paint1_linear_1_365)"/>
<path d="M87.5973 26.1231C87.5973 24.7004 86.8417 23.3848 85.6128 22.668L65.6811 11.0409L57.0067 6.01624C55.0875 4.90454 52.6302 5.56665 51.5293 7.49209L42.0924 23.9973C41.7404 24.6129 41.5584 25.311 41.5651 26.0202L41.7338 44.012C41.7371 44.363 41.9242 44.6865 42.2267 44.8645L62.9647 57.0645C63.2773 57.2484 63.665 57.2486 63.9779 57.065L65.6811 56.0654V37.5368L73.4541 23.8148C74.5493 21.8813 77.0107 21.2111 78.935 22.3225L84.8874 25.7603C85.1967 25.939 85.3873 26.2691 85.3873 26.6263V42.8313C85.3873 43.6043 86.2268 44.085 86.8934 43.6937L87.1034 43.5705C87.4094 43.3909 87.5973 43.0628 87.5973 42.708V26.1231Z" fill="url(#paint2_linear_1_365)" fill-opacity="0.7"/>
<path d="M152.473 48.595L151.038 39.39V26.475C151.038 24.7483 150.723 23.4067 150.093 22.45C149.463 21.4933 148.121 21.015 146.068 21.015C144.855 21.015 143.863 21.2017 143.093 21.575C142.346 21.925 141.786 22.4033 141.413 23.01C141.063 23.5933 140.888 24.235 140.888 24.935H128.778C128.778 22.2283 129.42 20 130.703 18.25C131.986 16.4767 133.911 15.1583 136.478 14.295C139.045 13.4317 142.241 13 146.068 13C149.405 13 152.275 13.5133 154.678 14.54C157.105 15.5667 158.971 17.1067 160.278 19.16C161.585 21.2133 162.238 23.7917 162.238 26.895V48.595H152.473ZM141.623 49.715C138.543 49.715 135.941 49.2017 133.818 48.175C131.718 47.125 130.131 45.7133 129.058 43.94C127.985 42.1667 127.448 40.2067 127.448 38.06C127.448 36.03 128.008 34.28 129.128 32.81C130.248 31.3167 131.905 30.1617 134.098 29.345C136.315 28.5283 139.033 28.12 142.253 28.12C144.213 28.12 145.94 28.225 147.433 28.435C148.95 28.645 150.501 28.9017 152.088 29.205V35.505C150.921 35.2483 149.708 35.05 148.448 34.91C147.211 34.77 145.998 34.7 144.808 34.7C143.151 34.7 141.833 34.9683 140.853 35.505C139.896 36.0183 139.418 36.87 139.418 38.06C139.418 38.9233 139.85 39.6817 140.713 40.335C141.576 40.965 142.941 41.28 144.808 41.28C146.395 41.28 147.643 40.965 148.553 40.335C149.463 39.705 150.105 38.9117 150.478 37.955C150.851 36.9983 151.038 36.0533 151.038 35.12H153.663C153.663 37.78 153.243 40.2183 152.403 42.435C151.563 44.6517 150.256 46.425 148.483 47.755C146.71 49.0617 144.423 49.715 141.623 49.715Z" fill="url(#paint3_linear_1_365)"/>
<path d="M2 48.3C0.895428 48.3 0 47.4046 0 46.3V2C0 0.895429 0.895431 0 2 0H9.2C10.3046 0 11.2 0.895431 11.2 2V46.3C11.2 47.4046 10.3046 48.3 9.2 48.3H2ZM9.8 25.235L21.1197 14.3814C21.4921 14.0243 21.988 13.825 22.5039 13.825H31.2043C33.0652 13.825 33.9175 16.1436 32.4996 17.3488L9.8 36.645V25.235ZM25.0581 48.3C24.3824 48.3 23.7524 47.9588 23.3831 47.3929L9.52 26.145L19.775 23.31L35.3071 45.1406C36.2492 46.4647 35.3025 48.3 33.6775 48.3H25.0581Z" fill="url(#paint4_linear_1_365)"/>
<path d="M108.293 49.715C105.003 49.715 102.098 49.2833 99.578 48.42C97.058 47.5333 95.0863 46.215 93.663 44.465C92.4391 42.9147 91.7591 41.0167 91.623 38.7709C91.5898 38.223 92.0404 37.78 92.5893 37.78H100.751C101.288 37.78 101.708 38.2129 101.856 38.7294C102.061 39.4432 102.48 39.9668 103.113 40.3C104.023 40.7667 105.248 41 106.788 41C107.721 41 108.491 40.8833 109.098 40.65C109.705 40.4167 110.16 40.1133 110.463 39.74C110.766 39.3433 110.918 38.9233 110.918 38.48C110.918 37.8967 110.708 37.43 110.288 37.08C109.868 36.73 109.215 36.38 108.328 36.03L99.963 32.775C97.4897 31.7483 95.5763 30.4533 94.223 28.89C92.893 27.3033 92.228 25.425 92.228 23.255C92.228 20.1983 93.6397 17.725 96.463 15.835C99.2863 13.945 103.148 13 108.048 13C112.645 13 116.18 14.0733 118.653 16.22C120.871 18.1454 122.104 20.54 122.352 23.4039C122.399 23.9569 121.946 24.41 121.391 24.41H113.143C112.591 24.41 112.166 23.9422 111.94 23.4386C111.783 23.0906 111.536 22.7727 111.198 22.485C110.568 21.925 109.518 21.645 108.048 21.645C106.835 21.645 105.878 21.8433 105.178 22.24C104.478 22.6367 104.128 23.1617 104.128 23.815C104.128 24.7017 104.863 25.4017 106.333 25.915L115.853 29.73C118.21 30.6633 120.065 31.83 121.418 33.23C122.771 34.63 123.448 36.38 123.448 38.48C123.448 40.3933 122.783 42.2133 121.453 43.94C120.146 45.6433 118.35 47.0317 116.063 48.105C113.776 49.1783 111.186 49.715 108.293 49.715Z" fill="url(#paint5_linear_1_365)"/>
<defs>
<linearGradient id="paint0_linear_1_365" x1="61.3315" y1="-47.1377" x2="72.3315" y2="36.3623" gradientUnits="userSpaceOnUse">
<stop stop-color="#995236"/>
<stop offset="1" stop-color="#FFE7E4"/>
</linearGradient>
<linearGradient id="paint1_linear_1_365" x1="66.8315" y1="11.8624" x2="50.8315" y2="49.8624" gradientUnits="userSpaceOnUse">
<stop stop-color="#FF6060"/>
<stop offset="0.112606" stop-color="#F45C5C"/>
<stop offset="0.519027" stop-color="#E65757"/>
<stop offset="0.581214" stop-color="#E96262"/>
<stop offset="0.641094" stop-color="#EE6C6C"/>
<stop offset="1" stop-color="#ED5959"/>
</linearGradient>
<linearGradient id="paint2_linear_1_365" x1="64.8315" y1="10.3624" x2="54.3315" y2="25.8624" gradientUnits="userSpaceOnUse">
<stop stop-color="#FF7F50"/>
<stop offset="1" stop-color="#E53A1C"/>
</linearGradient>
<linearGradient id="paint3_linear_1_365" x1="155.948" y1="15.095" x2="131.448" y2="46.595" gradientUnits="userSpaceOnUse">
<stop stop-color="#FC7152"/>
<stop offset="1" stop-color="#E74530"/>
</linearGradient>
<linearGradient id="paint4_linear_1_365" x1="26.085" y1="14.8" x2="1.58496" y2="46.3" gradientUnits="userSpaceOnUse">
<stop stop-color="#FC7152"/>
<stop offset="1" stop-color="#E74530"/>
</linearGradient>
<linearGradient id="paint5_linear_1_365" x1="116.679" y1="15.095" x2="91.5395" y2="43.01" gradientUnits="userSpaceOnUse">
<stop stop-color="#FC7152"/>
<stop offset="1" stop-color="#E74530"/>
</linearGradient>
</defs>
</svg>
