<svg width="16" height="16" viewBox="0 0 16 16" fill="none" xmlns="http://www.w3.org/2000/svg">
<path d="M10.9546 13.4546H5.04554C4.41918 13.4546 3.90918 12.9446 3.90918 12.3182V5.95457C3.90918 5.82911 4.011 5.72729 4.13645 5.72729C4.26191 5.72729 4.36373 5.82911 4.36373 5.95457V12.3182C4.36373 12.6941 4.66963 13 5.04554 13H10.9546C11.3305 13 11.6365 12.6941 11.6365 12.3182V5.95457C11.6365 5.82911 11.7383 5.72729 11.8637 5.72729C11.9892 5.72729 12.091 5.82911 12.091 5.95457V12.3182C12.091 12.9446 11.581 13.4546 10.9546 13.4546Z" fill="black"/>
<path d="M12.7727 6.18179H3.22727C3.10182 6.18179 3 6.07997 3 5.95451V5.04542C3 4.41906 3.51 3.90906 4.13636 3.90906H11.8636C12.49 3.90906 13 4.41906 13 5.04542V5.95451C13 6.07997 12.8982 6.18179 12.7727 6.18179ZM3.45455 5.72724H12.5455V5.04542C12.5455 4.66951 12.2396 4.3636 11.8636 4.3636H4.13636C3.76046 4.3636 3.45455 4.66951 3.45455 5.04542V5.72724Z" fill="black"/>
<path d="M10.0452 4.36359C9.91978 4.36359 9.81796 4.26178 9.81796 4.13632V3.22723C9.81796 3.10177 9.71614 2.99996 9.59069 2.99996H6.40887C6.28341 2.99996 6.1816 3.10177 6.1816 3.22723V4.13632C6.1816 4.26178 6.07978 4.36359 5.95432 4.36359C5.82887 4.36359 5.72705 4.26178 5.72705 4.13632V3.22723C5.72705 2.85132 6.03296 2.54541 6.40887 2.54541H9.59069C9.9666 2.54541 10.2725 2.85132 10.2725 3.22723V4.13632C10.2725 4.26178 10.1707 4.36359 10.0452 4.36359Z" fill="black"/>
<path d="M8.00022 11.6363C7.87477 11.6363 7.77295 11.5345 7.77295 11.409V7.77268C7.77295 7.64723 7.87477 7.54541 8.00022 7.54541C8.12568 7.54541 8.22749 7.64723 8.22749 7.77268V11.409C8.22749 11.5345 8.12568 11.6363 8.00022 11.6363Z" fill="black"/>
<path d="M5.95432 11.6363C5.82887 11.6363 5.72705 11.5345 5.72705 11.409V7.77268C5.72705 7.64723 5.82887 7.54541 5.95432 7.54541C6.07978 7.54541 6.1816 7.64723 6.1816 7.77268V11.409C6.1816 11.5345 6.07978 11.6363 5.95432 11.6363Z" fill="black"/>
<path d="M10.0456 11.6363C9.92018 11.6363 9.81836 11.5345 9.81836 11.409V7.77268C9.81836 7.64723 9.92018 7.54541 10.0456 7.54541C10.1711 7.54541 10.2729 7.64723 10.2729 7.77268V11.409C10.2729 11.5345 10.1711 11.6363 10.0456 11.6363Z" fill="black"/>
</svg>
