<svg width="16" height="16" viewBox="0 0 16 16" fill="none" xmlns="http://www.w3.org/2000/svg">
<path d="M8 1.64954C10.7562 1.64958 12.9999 3.89332 13 6.64954C13 10.2208 8.40493 14.108 8.20508 14.2775C8.14527 14.3245 8.07262 14.3507 8 14.3507C7.92737 14.3507 7.85474 14.3248 7.79492 14.2736C7.59834 14.1112 3 10.2179 3 6.64954C3.00015 3.89329 5.24372 1.64954 8 1.64954ZM8 2.29114C5.59842 2.29114 3.64077 4.24372 3.64062 6.64954C3.64062 9.51701 7.11113 12.8078 8 13.6027C8.88896 12.8034 12.3584 9.51268 12.3584 6.64954C12.3583 4.24802 10.4058 2.29118 8 2.29114ZM8 4.44836C9.21363 4.44836 10.2011 5.43591 10.2012 6.64954C10.2012 7.86319 9.21365 8.85071 8 8.85071C6.78636 8.85069 5.79883 7.86318 5.79883 6.64954C5.79887 5.43593 6.78639 4.44839 8 4.44836ZM8 5.08997C7.14108 5.08999 6.44047 5.79062 6.44043 6.64954C6.44043 7.50848 7.14106 8.20908 8 8.20911C8.85896 8.20911 9.55957 7.5085 9.55957 6.64954C9.55953 5.79061 8.85894 5.08997 8 5.08997Z" fill="#0D0D0D"/>
</svg>
