<svg width="16" height="16" viewBox="0 0 16 16" fill="none" xmlns="http://www.w3.org/2000/svg">
<path d="M11.6364 7.64077H5.24139L7.16613 5.71602C7.20087 5.68248 7.22857 5.64235 7.24763 5.59799C7.26669 5.55362 7.27672 5.5059 7.27714 5.45762C7.27756 5.40934 7.26835 5.36145 7.25007 5.31676C7.23179 5.27207 7.20479 5.23147 7.17064 5.19733C7.1365 5.16318 7.0959 5.13618 7.05121 5.1179C7.00652 5.09962 6.95863 5.09041 6.91035 5.09083C6.86207 5.09125 6.81435 5.10129 6.76998 5.12034C6.72562 5.1394 6.68549 5.1671 6.65195 5.20184L4.10647 7.74731C4.0383 7.81551 4 7.90798 4 8.00441C4 8.10083 4.0383 8.19331 4.10647 8.2615L6.65195 10.807C6.72053 10.8732 6.81239 10.9099 6.90773 10.909C7.00308 10.9082 7.09428 10.87 7.16171 10.8026C7.22913 10.7351 7.26737 10.6439 7.2682 10.5486C7.26903 10.4532 7.23237 10.3614 7.16613 10.2928L5.24139 8.36805H11.6364C11.7328 8.36805 11.8253 8.32974 11.8935 8.26154C11.9617 8.19334 12 8.10085 12 8.00441C12 7.90796 11.9617 7.81547 11.8935 7.74728C11.8253 7.67908 11.7328 7.64077 11.6364 7.64077Z" fill="black"/>
</svg>
