<svg width="16" height="16" viewBox="0 0 16 16" fill="none" xmlns="http://www.w3.org/2000/svg">
<path d="M8.35923 11.6364V5.24139L10.284 7.16613C10.3175 7.20087 10.3576 7.22857 10.402 7.24763C10.4464 7.26669 10.4941 7.27672 10.5424 7.27714C10.5907 7.27756 10.6385 7.26835 10.6832 7.25007C10.7279 7.23179 10.7685 7.20479 10.8027 7.17064C10.8368 7.1365 10.8638 7.0959 10.8821 7.05121C10.9004 7.00652 10.9096 6.95863 10.9092 6.91035C10.9087 6.86207 10.8987 6.81435 10.8797 6.76998C10.8606 6.72562 10.8329 6.68549 10.7982 6.65195L8.25269 4.10647C8.18449 4.0383 8.09202 4 7.99559 4C7.89917 4 7.80669 4.0383 7.7385 4.10647L5.19302 6.65195C5.12678 6.72053 5.09013 6.81239 5.09095 6.90773C5.09178 7.00308 5.13003 7.09428 5.19745 7.16171C5.26487 7.22913 5.35608 7.26737 5.45142 7.2682C5.54677 7.26903 5.63862 7.23237 5.70721 7.16613L7.63195 5.24139L7.63195 11.6364C7.63195 11.7328 7.67026 11.8253 7.73846 11.8935C7.80666 11.9617 7.89915 12 7.99559 12C8.09204 12 8.18453 11.9617 8.25272 11.8935C8.32092 11.8253 8.35923 11.7328 8.35923 11.6364Z" fill="black"/>
</svg>
