<svg width="16" height="16" viewBox="0 0 16 16" fill="none" xmlns="http://www.w3.org/2000/svg">
<path d="M3.67544 3.67471C3.91327 3.43688 4.29894 3.43688 4.53677 3.67471L8.00064 7.13857L11.4645 3.67568C11.7023 3.43788 12.088 3.43793 12.3258 3.67568C12.5637 3.91351 12.5637 4.29919 12.3258 4.53701L8.86196 7.9999L12.3258 11.4638C12.5635 11.7016 12.5636 12.0873 12.3258 12.3251C12.2062 12.4446 12.0499 12.5038 11.8952 12.5038C11.739 12.5038 11.5841 12.4446 11.4645 12.3251L8.00064 8.86025L4.53579 12.3251C4.41767 12.4446 4.26121 12.5037 4.10513 12.5038C3.94908 12.5038 3.79403 12.4445 3.67446 12.3251C3.43664 12.0873 3.43664 11.7016 3.67446 11.4638L7.13931 7.99893L3.67544 4.53506C3.43787 4.29727 3.43785 3.91248 3.67544 3.67471Z" fill="#0D0D0D"/>
</svg>
