<svg width="16" height="16" viewBox="0 0 16 16" fill="none" xmlns="http://www.w3.org/2000/svg">
<path d="M5.5 5C5.5 4.72387 5.72387 4.5 6 4.5H12.5C12.7761 4.5 13 4.72387 13 5C13 5.27613 12.7761 5.5 12.5 5.5H6C5.72387 5.5 5.5 5.27611 5.5 5ZM12.5 7.5H3.5C3.22387 7.5 3 7.72389 3 8C3 8.27613 3.22387 8.5 3.5 8.5H12.5C12.7761 8.5 13 8.27613 13 8C13 7.72389 12.7761 7.5 12.5 7.5ZM12.5 10.5H8C7.72389 10.5 7.5 10.7239 7.5 11C7.5 11.2761 7.72389 11.5 8 11.5H12.5C12.7761 11.5 13 11.2761 13 11C13 10.7239 12.7761 10.5 12.5 10.5Z" fill="black"/>
</svg>
